<?xml version="1.0" encoding="iso-8859-1"?>
<!-- Generator: Adobe Illustrator 16.0.0, SVG Export Plug-In . SVG Version: 6.00 Build 0)  -->
<!DOCTYPE svg PUBLIC "-//W3C//DTD SVG 1.1//EN" "http://www.w3.org/Graphics/SVG/1.1/DTD/svg11.dtd">
<svg version="1.1" id="Capa_1" xmlns="http://www.w3.org/2000/svg" xmlns:xlink="http://www.w3.org/1999/xlink" x="0px" y="0px"
	 width="512px" height="512px" viewBox="0 0 512 512" style="enable-background:new 0 0 512 512;" xml:space="preserve">
<g>
	<path d="M256,512c141.385,0,256-114.615,256-256S397.385,0,256,0C114.615,0,0,114.615,0,256S114.615,512,256,512z M256,48
		c114.875,0,208,93.125,208,208s-93.125,208-208,208S48,370.875,48,256S141.125,48,256,48z M128,160c0,17.673,14.327,32,32,32
		s32-14.327,32-32s-14.327-32-32-32S128,142.327,128,160z M320,160c0,17.673,14.326,32,32,32s32-14.327,32-32s-14.326-32-32-32
		S320,142.327,320,160z M363.053,320h32.434c4.623,36.253-16.227,72.266-51.979,85.279c-41.451,15.089-87.451-6.357-102.541-47.807
		c-9.054-24.873-36.653-37.742-61.524-28.688c-22.781,8.294-35.478,32.148-30.494,55.212h-32.43
		c-4.621-36.254,16.225-72.265,51.978-85.28c41.452-15.089,87.451,6.358,102.541,47.809c9.052,24.873,36.653,37.74,61.521,28.686
		C355.34,366.919,368.037,343.062,363.053,320z"/>
</g>
<g>
</g>
<g>
</g>
<g>
</g>
<g>
</g>
<g>
</g>
<g>
</g>
<g>
</g>
<g>
</g>
<g>
</g>
<g>
</g>
<g>
</g>
<g>
</g>
<g>
</g>
<g>
</g>
<g>
</g>
</svg>
