<?xml version="1.0" encoding="iso-8859-1"?>
<!-- Generator: Adobe Illustrator 18.1.1, SVG Export Plug-In . SVG Version: 6.00 Build 0)  -->
<svg version="1.1" id="Capa_1" xmlns="http://www.w3.org/2000/svg" xmlns:xlink="http://www.w3.org/1999/xlink" x="0px" y="0px"
	 viewBox="0 0 514.088 514.088" style="enable-background:new 0 0 514.088 514.088;" xml:space="preserve">
<g>
	<g>
		<path style="fill:#010002;" d="M160.043,162.792c0,13.464,2.55,26.112,7.65,37.944s12.036,22.134,20.808,30.906
			s18.972,15.708,30.6,20.808c11.628,5.102,24.174,7.649,37.638,7.649c13.464,0,26.112-2.549,37.944-7.649
			c11.832-5.1,22.134-12.036,30.906-20.808c8.771-8.772,15.708-19.074,20.808-30.906c5.1-11.832,7.65-24.479,7.65-37.944
			c0-13.464-2.553-26.112-7.65-37.944s-12.036-22.134-20.808-30.906c-8.772-8.771-19.074-15.708-30.906-20.808
			c-11.832-5.1-24.48-7.65-37.944-7.65c-13.464,0-26.01,2.55-37.638,7.65c-11.628,5.1-21.828,12.036-30.6,20.808
			s-15.708,19.074-20.808,30.906S160.043,149.328,160.043,162.792z M419.531,162.792c0,19.584-3.366,38.25-10.098,55.998
			s-16.017,33.66-27.846,47.735c-11.832,14.076-25.704,26.01-41.616,35.803c-15.912,9.791-33.252,16.523-52.021,20.195v50.188
			h42.229c8.976,0,16.521,3.059,22.644,9.18c6.122,6.119,9.183,13.871,9.183,23.256c0,9.383-3.063,17.135-9.183,23.256
			c-6.12,6.119-13.668,9.182-22.644,9.182H287.95v44.676c0,8.977-3.06,16.521-9.18,22.645c-6.938,6.119-14.688,9.182-23.256,9.182
			c-8.568,0-16.32-3.063-23.256-9.182c-6.12-6.121-9.18-13.668-9.18-22.645v-44.678h-39.78c-8.568,0-16.014-3.264-22.338-9.793
			c-6.324-6.525-9.486-14.072-9.486-22.643s3.06-16.32,9.18-23.256c6.12-6.121,13.668-9.18,22.644-9.18h39.78v-50.799
			c-18.36-4.08-35.394-10.914-51.102-20.502s-29.274-21.42-40.698-35.496s-20.4-29.886-26.928-47.43
			c-6.528-17.544-9.792-36.108-9.792-55.692c0-22.44,4.284-43.554,12.852-63.342c8.568-19.788,20.196-37.026,34.884-51.714
			s31.824-26.316,51.408-34.884C213.286,4.284,234.298,0,256.737,0s43.555,4.284,63.342,12.852
			c19.788,8.568,37.026,20.196,51.717,34.884c14.688,14.688,26.313,31.926,34.884,51.714
			C415.245,119.238,419.531,140.352,419.531,162.792z"/>
	</g>
</g>
<g>
</g>
<g>
</g>
<g>
</g>
<g>
</g>
<g>
</g>
<g>
</g>
<g>
</g>
<g>
</g>
<g>
</g>
<g>
</g>
<g>
</g>
<g>
</g>
<g>
</g>
<g>
</g>
<g>
</g>
</svg>
