<?xml version="1.0" encoding="iso-8859-1"?>
<!-- Generator: Adobe Illustrator 16.0.0, SVG Export Plug-In . SVG Version: 6.00 Build 0)  -->
<!DOCTYPE svg PUBLIC "-//W3C//DTD SVG 1.1//EN" "http://www.w3.org/Graphics/SVG/1.1/DTD/svg11.dtd">
<svg version="1.1" id="Capa_1" xmlns="http://www.w3.org/2000/svg" xmlns:xlink="http://www.w3.org/1999/xlink" x="0px" y="0px"
	 width="31.838px" height="31.838px" viewBox="0 0 31.838 31.838" style="enable-background:new 0 0 31.838 31.838;"
	 xml:space="preserve">
<g>
	<g>
		<circle cx="11.942" cy="4.483" r="4.483"/>
		<path d="M27.601,10.6c0-2.81-2.27-5.097-5.073-5.131V5.206h-0.651v1.32c-1.139,0.078-2.15,0.62-2.839,1.445
			c-0.067,0.083-0.132,0.168-0.192,0.255c-0.469,0.661-0.744,1.469-0.744,2.34c0,0.868,0.275,1.676,0.744,2.336
			c0.062,0.087,0.125,0.172,0.192,0.252c0.688,0.827,1.7,1.369,2.839,1.447v2.402h-1.218v0.496h-0.142l-4.584-7.36l-0.018-0.003
			v-0.053l-2.335-0.444l-1.654,1.981l-1.708-1.981L9.551,9.764l-2.02,0.375l-3.294,8.919l2.31,0.786l1.095-3.673l0.031,2.194
			l0.086,1.674h0.285l-0.01,1.967l-0.145,8.168H7.294v1.663h0.584h3.223h0.602v-1.663H11.1l-0.01-8.368l1.5-0.017l-0.049,8.385
			h-0.595v1.663h0.584h3.225h0.6v-1.663h-0.6l-0.068-8.135l-0.1-2h0.232l0.084-1.674l-0.067-4.225l2.489,4.358l1.438-0.54v0.284
			h5.423v-0.745h-0.909v-0.496h-1.379v-1.288C25.527,15.497,27.601,13.285,27.601,10.6z M22.318,6.856
			c0.675,0.105,1.256,0.805,1.587,1.806c-0.477,0.139-1.016,0.225-1.587,0.24V6.856z M24.31,12.259
			c0.117-0.432,0.193-0.902,0.214-1.396h1.337c-0.055,0.68-0.294,1.311-0.666,1.839C24.938,12.529,24.64,12.381,24.31,12.259z
			 M24.997,12.955c-0.441,0.524-1.021,0.927-1.689,1.145c0.381-0.36,0.693-0.892,0.908-1.53
			C24.509,12.677,24.771,12.808,24.997,12.955z M24.53,10.529c-0.002-0.592-0.083-1.153-0.221-1.66
			c0.33-0.124,0.627-0.272,0.883-0.443c0.421,0.597,0.673,1.32,0.68,2.104H24.53V10.529z M24.216,8.558
			c-0.215-0.639-0.527-1.17-0.908-1.532c0.668,0.221,1.25,0.623,1.689,1.146C24.771,8.32,24.509,8.451,24.216,8.558z M22.318,9.234
			c0.604-0.015,1.172-0.108,1.681-0.261c0.123,0.474,0.196,1,0.198,1.556h-1.879V9.234z M22.318,10.862h1.872
			c-0.02,0.459-0.088,0.894-0.191,1.291c-0.507-0.153-1.076-0.246-1.681-0.26V10.862z M20.968,7.035
			c-0.373,0.36-0.684,0.887-0.896,1.517c-0.287-0.106-0.542-0.234-0.766-0.381C19.741,7.654,20.314,7.256,20.968,7.035z
			 M19.112,8.426c0.251,0.169,0.542,0.315,0.863,0.438c-0.137,0.508-0.219,1.071-0.221,1.666h-1.322
			C18.439,9.746,18.691,9.022,19.112,8.426z M18.443,10.862h1.317c0.021,0.498,0.099,0.971,0.215,1.402
			c-0.321,0.121-0.612,0.27-0.863,0.437C18.739,12.173,18.499,11.542,18.443,10.862z M19.306,12.955
			c0.224-0.144,0.48-0.273,0.766-0.38c0.214,0.631,0.523,1.156,0.896,1.516C20.314,13.87,19.742,13.472,19.306,12.955z
			 M21.986,14.273c-0.683-0.095-1.271-0.794-1.604-1.803c0.479-0.144,1.024-0.23,1.604-0.247V14.273z M21.986,11.894
			c-0.61,0.014-1.187,0.109-1.7,0.266c-0.104-0.398-0.171-0.836-0.191-1.297h1.893L21.986,11.894L21.986,11.894z M21.986,10.529
			h-1.897c0.002-0.56,0.075-1.084,0.2-1.561c0.513,0.157,1.089,0.251,1.697,0.266V10.529z M21.986,8.902
			c-0.579-0.016-1.124-0.102-1.604-0.247c0.332-1.007,0.922-1.707,1.604-1.803V8.902z M22.318,12.224
			c0.571,0.016,1.11,0.099,1.589,0.242c-0.331,1-0.914,1.699-1.589,1.805V12.224z M22.466,15.089c-0.021,0-0.045-0.002-0.067-0.002
			v-0.484c1.149-0.069,2.173-0.614,2.868-1.446c0.068-0.083,0.134-0.168,0.193-0.255c0.469-0.66,0.745-1.468,0.745-2.336
			c0-0.871-0.276-1.679-0.745-2.34c-0.061-0.087-0.125-0.172-0.193-0.255c-0.668-0.802-1.641-1.339-2.739-1.44V6.114
			c2.446,0.032,4.428,2.032,4.428,4.485C26.955,13.075,24.942,15.089,22.466,15.089z"/>
	</g>
</g>
<g>
</g>
<g>
</g>
<g>
</g>
<g>
</g>
<g>
</g>
<g>
</g>
<g>
</g>
<g>
</g>
<g>
</g>
<g>
</g>
<g>
</g>
<g>
</g>
<g>
</g>
<g>
</g>
<g>
</g>
</svg>
