<?xml version="1.0" encoding="iso-8859-1"?>
<!-- Generator: Adobe Illustrator 16.0.0, SVG Export Plug-In . SVG Version: 6.00 Build 0)  -->
<!DOCTYPE svg PUBLIC "-//W3C//DTD SVG 1.1//EN" "http://www.w3.org/Graphics/SVG/1.1/DTD/svg11.dtd">
<svg version="1.1" id="Capa_1" xmlns="http://www.w3.org/2000/svg" xmlns:xlink="http://www.w3.org/1999/xlink" x="0px" y="0px"
	 width="31.662px" height="31.662px" viewBox="0 0 31.662 31.662" style="enable-background:new 0 0 31.662 31.662;"
	 xml:space="preserve">
<g>
	<g>
		<path d="M13.193,13.308h4.496c0.23-1.27,0.906-2.364,1.863-3.159c0.004,0,0.009,0,0.015,0c0.797-0.027,1.836-0.237,2.821-0.966
			c0.121-0.089,0.238-0.185,0.351-0.284c1.412-1.252,2.187-3.332,2.292-6.192c0.025-0.758-0.564-1.396-1.32-1.425
			c-0.826-0.042-1.396,0.562-1.425,1.322c-0.084,2.161-0.602,3.664-1.506,4.349c-0.196,0.151-0.405,0.254-0.606,0.323
			c-0.006,0.002-0.015,0.003-0.021,0.005c-0.595-0.568-1.418-0.845-1.974-0.845h-3.398h-3.397c-1.246,0-2.237,1.251-2.259,2.624
			C11.201,9.567,12.811,11.246,13.193,13.308z"/>
		<ellipse cx="14.78" cy="3.195" rx="3.261" ry="3.195"/>
		<path d="M14.359,21.546c0-2.479-1.068-3.526-2.55-3.526h-0.081H8.373c1.854-0.271,3.275-1.834,3.275-3.728
			c0-2.08-1.72-3.768-3.847-3.768c-2.123,0-3.844,1.688-3.844,3.768c0,1.894,1.421,3.456,3.276,3.728H3.877H3.795
			c-1.484,0-2.688,1.588-2.688,3.229v5.02h13.252V21.546z"/>
		<path d="M19.101,14.292c0,1.894,1.422,3.456,3.274,3.728h-3.22h-0.219c-1.485,0-2.618,1.588-2.618,3.229v5.02h13.15v-4.72
			c0-2.45-1.029-3.481-2.481-3.506c-0.021,0-0.019-0.021-0.037-0.021h-3.438c1.855-0.271,3.277-1.834,3.277-3.729
			c0-2.08-1.722-3.768-3.846-3.768C20.821,10.524,19.101,12.212,19.101,14.292z"/>
		<rect x="0.029" y="28.423" width="31.604" height="3.239"/>
	</g>
</g>
<g>
</g>
<g>
</g>
<g>
</g>
<g>
</g>
<g>
</g>
<g>
</g>
<g>
</g>
<g>
</g>
<g>
</g>
<g>
</g>
<g>
</g>
<g>
</g>
<g>
</g>
<g>
</g>
<g>
</g>
</svg>
