<?xml version="1.0" encoding="iso-8859-1"?>
<!-- Generator: Adobe Illustrator 16.0.0, SVG Export Plug-In . SVG Version: 6.00 Build 0)  -->
<!DOCTYPE svg PUBLIC "-//W3C//DTD SVG 1.1//EN" "http://www.w3.org/Graphics/SVG/1.1/DTD/svg11.dtd">
<svg version="1.1" id="Capa_1" xmlns="http://www.w3.org/2000/svg" xmlns:xlink="http://www.w3.org/1999/xlink" x="0px" y="0px"
	 width="31.371px" height="31.372px" viewBox="0 0 31.371 31.372" style="enable-background:new 0 0 31.371 31.372;"
	 xml:space="preserve">
<g>
	<g>
		<path d="M4.414,28.026c0.39,0.195,0.802,0.292,1.23,0.292c0.695,0,1.272-0.231,1.731-0.7c0.458-0.468,0.687-1.056,0.687-1.767
			c0-0.704-0.226-1.286-0.68-1.748c-0.453-0.461-1.035-0.69-1.746-0.69c-0.459,0-0.876,0.103-1.249,0.306
			c-0.372,0.202-0.66,0.497-0.863,0.884c-0.203,0.385-0.304,0.783-0.304,1.193c0,0.539,0.101,0.998,0.304,1.373
			C3.726,27.545,4.024,27.831,4.414,28.026z M4.823,24.795c0.221-0.246,0.493-0.371,0.816-0.371c0.324,0,0.597,0.123,0.816,0.371
			c0.22,0.248,0.328,0.602,0.328,1.062c0,0.474-0.108,0.831-0.328,1.078c-0.22,0.248-0.492,0.371-0.816,0.371
			c-0.323,0-0.596-0.123-0.816-0.371c-0.222-0.248-0.332-0.604-0.332-1.069C4.491,25.399,4.601,25.042,4.823,24.795z"/>
		<path d="M9.82,26.084c0-0.522,0.028-0.883,0.092-1.076c0.063-0.194,0.179-0.352,0.35-0.469c0.171-0.119,0.363-0.179,0.578-0.179
			c0.168,0,0.312,0.044,0.431,0.124c0.119,0.083,0.201,0.198,0.254,0.348c0.054,0.148,0.075,0.478,0.075,0.982v2.411h1.251v-2.935
			c0-0.36-0.022-0.64-0.067-0.834c-0.047-0.193-0.129-0.369-0.244-0.521c-0.116-0.15-0.288-0.277-0.516-0.378
			c-0.227-0.101-0.462-0.146-0.736-0.146c-0.623,0-1.138,0.266-1.533,0.795v-0.658H8.567v4.679H9.82V26.084z"/>
		<rect x="13.641" y="21.706" width="1.252" height="6.522"/>
		<rect x="15.75" y="21.706" width="1.186" height="1.187"/>
		<rect x="15.75" y="23.549" width="1.186" height="4.679"/>
		<path d="M19.045,26.084c0-0.522,0.016-0.883,0.078-1.076c0.062-0.194,0.174-0.352,0.344-0.469
			c0.172-0.119,0.359-0.179,0.574-0.179c0.168,0,0.311,0.044,0.43,0.124c0.119,0.083,0.213,0.198,0.266,0.348
			c0.054,0.148,0.088,0.478,0.088,0.982v2.411h1.253v-2.935c0-0.36-0.035-0.64-0.082-0.834c-0.046-0.193-0.134-0.369-0.25-0.521
			c-0.115-0.15-0.291-0.277-0.519-0.378c-0.227-0.101-0.486-0.146-0.76-0.146c-0.623,0-1.158,0.266-1.555,0.795v-0.658h-1.121v4.679
			h1.254V26.084L19.045,26.084z"/>
		<path d="M24.77,28.318c0.517,0,0.943-0.118,1.287-0.354s0.596-0.584,0.754-1.035l-1.236-0.208
			c-0.067,0.233-0.168,0.405-0.301,0.513c-0.133,0.105-0.297,0.16-0.49,0.16c-0.286,0-0.524-0.089-0.717-0.294
			c-0.19-0.205-0.293-0.517-0.301-0.847h3.109c0.021-0.987-0.174-1.672-0.576-2.133c-0.404-0.461-0.955-0.699-1.654-0.699
			c-0.621,0-1.137,0.219-1.541,0.658c-0.406,0.439-0.608,1.049-0.608,1.825c0,0.651,0.153,1.189,0.463,1.616
			C23.35,28.052,23.954,28.318,24.77,28.318z M24.049,24.659c0.176-0.197,0.398-0.297,0.67-0.297c0.256,0,0.471,0.094,0.646,0.279
			c0.177,0.188,0.271,0.488,0.277,0.818h-1.856C23.786,25.129,23.874,24.854,24.049,24.659z"/>
		<path d="M26.975,15.77l-1.434-0.69l-0.135,0.28c-0.256,0.527-0.771,0.878-1.355,0.919c-0.037,0.003-0.074,0.005-0.109,0.005
			c-0.547,0-1.057-0.271-1.358-0.729l-2.912-4.397c-0.424,0.131-0.996,0.276-1.301,0.333c-0.494,0.094-0.851-0.585-1.015-0.889
			c-0.162-0.303-0.625-1.38-0.719-1.66c-0.094-0.282-0.417,0.405-0.371,0.708c0.047,0.305,0.488,1.187,0.697,1.515
			c0.211,0.328,0.305,0.723,0.305,1.03c0,0.303,0.438,0.515,0.9,0.654c0.465,0.142,0,0.445-0.162,0.632
			c-0.162,0.188-0.832,0.561-1.531,0.912c-0.697,0.352-1.438,1.544-1.693,2.036c-0.255,0.49-0.837,1.379-1.322,1.775
			c-0.004,0.002-0.008,0.006-0.012,0.008H9.027c-0.277-1.002-0.322-2.433-0.277-2.813c0.071-0.583,0.464-1.521,0.417-2.058
			c-0.043-0.538,0.182-1.428,0.299-1.638c0.121-0.211,0.675,0.021,0.932-0.001c0.255-0.024-0.257-0.658-0.395-0.635
			s-0.463-0.191-0.654-0.287c-0.183-0.094-0.391-0.667-1.109-0.828C7.517,9.786,7.425,8.878,7.333,8.433
			C7.24,7.988,7.822,6.826,7.939,6.593c0.115-0.235,1.575-1.511,1.575-1.511s0.779-0.401,1-0.387c0.65,0.04,1.279,0.661,1.279,0.661
			s0.929,0.57,1.526,1.524c0.499,0.795,1.55,0.94,1.55,0.94c0.58-0.05,0.96-0.498,0.988-0.66c0.104-0.534-0.303-0.984-0.867-0.955
			c-0.118,0.007-0.163,0.234-0.347,0.234c-0.188,0-0.142-0.234-0.211-0.469c-0.069-0.233-0.086-0.511-0.2-0.792
			c-0.113-0.28-0.206-0.625-0.437-0.881c-0.233-0.259-0.556-0.064-0.857-0.134c-0.301-0.071-0.755,0.172-1.079,0.147
			c-0.328-0.024-0.488-0.28-0.466-0.514c0.023-0.234,0.819-0.528,1.211-0.575C13,3.176,13.357,3.132,13.47,2.968
			c0.118-0.164,0.677-0.253,0.864-0.23c0.185,0.025,0.481,0.15,0.662,0.383c0.243,0.321,0.254,0.824,0.818,0.751
			c0.217-0.029,0.793-0.356,0.356-0.614c-0.246-0.146-0.58-0.374-0.345-0.795c0.031-0.057,0.1-0.102,0.196-0.135
			c2.808,0.161,5.306,1.493,7.013,3.514l2.495-0.222c-2.153-3.277-5.864-5.442-10.083-5.442c-6.656,0-12.054,5.397-12.054,12.054
			c0,2.179,0.585,4.218,1.597,5.979H1.677C0.751,18.211,0,18.961,0,19.888v9.42c0,1.041,0.844,1.885,1.886,1.885h26.607
			c1.043,0,1.887-0.844,1.887-1.885v-9.211c0-1.041-0.844-1.886-1.887-1.886h-2.582C26.352,17.445,26.71,16.627,26.975,15.77z
			 M15.618,17.735c0.23-0.049,0.23,0.198,0.145,0.477h-1.154C14.795,17.897,15.186,17.829,15.618,17.735z M27.124,20.32
			c0.596,0,1.08,0.484,1.08,1.082v6.535c0,0.599-0.484,1.082-1.08,1.082H3.256c-0.597,0-1.081-0.483-1.081-1.082v-6.535
			c0-0.598,0.484-1.082,1.081-1.082H27.124z"/>
		<path d="M21.23,7.632c-0.397,0.035-0.748,0.277-0.92,0.637c-0.176,0.359-0.146,0.784,0.074,1.117l2.418,3.65
			c0.219,0.33,0.598,0.518,0.992,0.491c0.396-0.027,0.746-0.264,0.918-0.622l4.266,2.053c0.232,0.112,0.504,0.128,0.748,0.042
			c0.242-0.086,0.443-0.265,0.558-0.498l0.991-2.061c0.232-0.486,0.029-1.07-0.457-1.304l-4.264-2.052l0.104-0.217
			c0.178-0.367,0.143-0.801-0.089-1.136c-0.232-0.335-0.627-0.52-1.032-0.484L21.23,7.632z"/>
	</g>
</g>
<g>
</g>
<g>
</g>
<g>
</g>
<g>
</g>
<g>
</g>
<g>
</g>
<g>
</g>
<g>
</g>
<g>
</g>
<g>
</g>
<g>
</g>
<g>
</g>
<g>
</g>
<g>
</g>
<g>
</g>
</svg>
